<?xml version="1.0" encoding="UTF-8"?>
<svg version="1.1" xmlns="http://www.w3.org/2000/svg" viewBox="230 900 1650 280" width="100%" height="100%">
<path d="M0 0 C660 0 1320 0 2000 0 C2000 660 2000 1320 2000 2000 C1340 2000 680 2000 0 2000 C0 1340 0 680 0 0 Z " fill="#FEFEFE" transform="translate(0,0)"/>
<path d="M0 0 C0.68969879 0.00021149 1.37939758 0.00042297 2.08999634 0.00064087 C12.55450492 0.03271774 22.03563348 0.71874178 31.9375 4.375 C33.00226563 4.73722656 34.06703125 5.09945312 35.1640625 5.47265625 C44.68897699 9.02942812 53.12633515 14.80703905 59.9375 22.375 C60.47761719 22.93445313 61.01773437 23.49390625 61.57421875 24.0703125 C66.555264 29.40791848 72.9375 36.78284466 72.9375 44.375 C77.60036004 40.04772459 81.21312865 35.14090575 84.9375 30 C85.54078125 29.175 86.1440625 28.35 86.765625 27.5 C90.10039781 22.94756137 90.10039781 22.94756137 93.33447266 18.32373047 C100.01815267 8.53902898 110.97668863 5.47775276 121.9375 2.375 C122.58017822 2.18518555 123.22285645 1.99537109 123.88500977 1.79980469 C131.10140999 -0.0971643 138.33286855 0.08091601 145.75 0.125 C147.03970703 0.11726562 148.32941406 0.10953125 149.65820312 0.1015625 C170.89177668 0.1445237 189.64411187 5.96994093 205.125 21 C224.46925883 40.61039325 226.11363595 65.13717907 226.05102539 91.25097656 C226.05074273 92.91775002 226.05090278 94.58452361 226.0514679 96.251297 C226.05175281 100.74012376 226.04590581 105.22892337 226.03889394 109.71774387 C226.0326092 114.42224042 226.03205257 119.1267377 226.03086853 123.83123779 C226.02777024 132.7237935 226.01957723 141.61633679 226.00951904 150.50888705 C225.99831109 160.63956339 225.99283569 170.77024034 225.98782361 180.90092134 C225.97739325 201.72562268 225.95906658 222.55030702 225.9375 243.375 C205.8075 243.375 185.6775 243.375 164.9375 243.375 C164.91562622 236.88392578 164.91562622 236.88392578 164.89331055 230.26171875 C164.84272117 215.88082003 164.77622989 201.50002622 164.70178509 187.11923218 C164.65707936 178.40974142 164.61760887 169.70028927 164.59106445 160.99072266 C164.56787761 153.38739646 164.5342557 145.78419506 164.48879844 138.18096828 C164.46514064 134.1660683 164.4462345 130.15128977 164.43988609 126.13632202 C166.20365592 87.61827903 166.20365592 87.61827903 150.95703125 54.125 C140.93053399 45.43666195 129.95227351 43.33772387 117.03076172 44.13232422 C109.02491439 45.06045721 101.16898575 49.25362234 95.9375 55.375 C81.83623671 74.57226437 80.84004106 98.55905713 80.73217773 121.44873047 C80.72256435 122.79068275 80.71255246 124.13263223 80.70217896 125.47457886 C80.67549769 129.06865828 80.65429272 132.66275034 80.63417697 136.2568717 C80.6120863 140.03114376 80.58481217 143.80537854 80.55812073 147.57962036 C80.50850206 154.7048262 80.46345087 161.83005307 80.42009836 168.9552995 C80.36115289 178.59909567 80.29503465 188.2428426 80.22934818 197.88659477 C80.12625663 213.04936318 80.03264723 228.21217484 79.9375 243.375 C59.8075 243.375 39.6775 243.375 18.9375 243.375 C18.91562622 236.8306311 18.91562622 236.8306311 18.89331055 230.15405273 C18.84274013 215.66138856 18.77625223 201.1688287 18.70178509 186.67626858 C18.65706306 177.8983678 18.61759602 169.12050547 18.59106445 160.3425293 C18.56789114 152.68024945 18.53428338 145.01809374 18.48879844 137.35591274 C18.465123 133.3091866 18.4462281 129.26258139 18.43988609 125.21578789 C20.13460372 87.19142832 20.13460372 87.19142832 4.95703125 54.125 C-3.16792553 47.0844185 -11.83371663 43.97902059 -22.5 44.0625 C-23.2528125 44.06813965 -24.005625 44.0737793 -24.78125 44.07958984 C-33.99346169 44.28185797 -40.91767372 47.5183673 -48.0625 53.375 C-68.38326741 74.75318291 -65.36699577 109.80494442 -65.46721697 136.96662927 C-65.48310441 140.72219619 -65.50980919 144.47768789 -65.5352478 148.23320007 C-65.58159112 155.30858209 -65.61854662 162.38397899 -65.65192068 169.45943278 C-65.69770131 179.04608379 -65.75840743 188.6326404 -65.81816864 198.21921253 C-65.91161543 213.2710938 -65.98548696 228.32300487 -66.0625 243.375 C-86.5225 243.375 -106.9825 243.375 -128.0625 243.375 C-128.0625 165.165 -128.0625 86.955 -128.0625 6.375 C-107.6025 6.375 -87.1425 6.375 -66.0625 6.375 C-65.7325 17.265 -65.4025 28.155 -65.0625 39.375 C-60.22065696 31.10402345 -60.22065696 31.10402345 -55.43212891 22.80224609 C-49.32903468 12.6346202 -42.62293543 8.12866466 -31.5 4.625 C-30.30246094 4.23828125 -29.10492187 3.8515625 -27.87109375 3.453125 C-25.98583984 2.91945313 -25.98583984 2.91945313 -24.0625 2.375 C-23.42272217 2.18663574 -22.78294434 1.99827148 -22.1237793 1.80419922 C-14.84646281 -0.10312416 -7.47888065 -0.02106539 0 0 Z " fill="#232323" transform="translate(1225.0625,921.625)"/>
<path d="M0 0 C1.21107422 -0.01160156 2.42214844 -0.02320313 3.66992188 -0.03515625 C24.93566995 0.03318574 43.88525495 7.58666021 59.30859375 22.140625 C65.17165139 28.36927745 69.20246914 35.99970816 73.4375 43.375 C74.82652487 41.56342492 76.21495123 39.75139694 77.60253906 37.9387207 C78.79163698 36.38650569 79.98241418 34.83557579 81.17480469 33.28588867 C83.83378794 29.82194821 86.47785468 26.35875001 88.98828125 22.78515625 C99.13119256 8.49860444 113.48844194 3.32158311 130.4375 0.375 C134.94895103 0.01234422 139.41398953 -0.00256776 143.9375 0.0625 C145.05769531 0.05927734 146.17789062 0.05605469 147.33203125 0.05273438 C158.04838758 0.12071587 168.61269551 1.11299588 178.625 5.125 C179.29934082 5.38885498 179.97368164 5.65270996 180.66845703 5.92456055 C197.58486867 12.74177314 210.70423865 25.0422025 218.34765625 41.71875 C218.70730469 42.5953125 219.06695313 43.471875 219.4375 44.375 C219.80746094 45.2721875 220.17742187 46.169375 220.55859375 47.09375 C228.421079 69.90359733 225.72363149 97.93812079 225.64028788 121.81636262 C225.62752618 126.11102248 225.6265905 130.40568726 225.62423706 134.70036316 C225.61809519 142.78134792 225.60178657 150.86227661 225.58153808 158.94323701 C225.55894763 168.16500785 225.54812833 177.3867818 225.53814721 186.60857356 C225.51741107 205.53075367 225.48082984 224.45285721 225.4375 243.375 C204.9775 243.375 184.5175 243.375 163.4375 243.375 C163.41768066 239.02666992 163.39786133 234.67833984 163.37744141 230.19824219 C163.31028619 215.76943902 163.23274669 201.3407051 163.14997292 186.91198349 C163.10007795 178.17099465 163.05363465 169.43001412 163.015625 160.68896484 C162.98244552 153.06079928 162.94247622 145.43270296 162.89470994 137.80461431 C162.86969968 133.77421389 162.84784693 129.74385787 162.83415604 125.71340179 C164.57488529 87.86916766 164.57488529 87.86916766 150.4375 54.375 C142.7675692 46.85678212 133.47913385 44.00132345 122.9375 43.875 C111.66682983 44.04692967 103.7834991 47.00418334 95.58984375 54.96484375 C76.67037665 76.15052651 79.1295513 110.4338548 79.03278303 136.76384139 C79.01692661 140.52475881 78.99021107 144.28560055 78.9647522 148.04646301 C78.91835603 155.13607792 78.88142526 162.2257077 78.84807932 169.3153947 C78.80234842 178.91838076 78.74162189 188.521272 78.68183136 198.12417889 C78.58830392 213.20773789 78.51448853 228.29132649 78.4375 243.375 C58.3075 243.375 38.1775 243.375 17.4375 243.375 C17.41562622 236.51871826 17.41562622 236.51871826 17.39331055 229.52392578 C17.34283236 214.37264986 17.27636132 199.22147469 17.20178509 184.07029915 C17.15698352 174.88981404 17.11753362 165.70936638 17.09106445 156.52880859 C17.06795683 148.51902322 17.03441876 140.5093579 16.98879844 132.499668 C16.96503673 128.26586549 16.94619712 124.03218061 16.93988609 119.79831314 C18.40210988 84.54170737 18.40210988 84.54170737 4.16015625 53.83203125 C0.88290258 51.06011375 -2.67288362 49.1536688 -6.5625 47.375 C-7.23925781 47.05402344 -7.91601562 46.73304688 -8.61328125 46.40234375 C-17.71839811 42.71571451 -29.11232415 43.04384219 -38.29296875 46.34765625 C-49.8530975 51.58055446 -55.47771632 59.83344397 -59.875 71.4375 C-67.68140749 92.29779713 -66.88659574 114.82735292 -66.96721697 136.76384139 C-66.98307339 140.52475881 -67.00978893 144.28560055 -67.0352478 148.04646301 C-67.08164397 155.13607792 -67.11857474 162.2257077 -67.15192068 169.3153947 C-67.19765158 178.91838076 -67.25837811 188.521272 -67.31816864 198.12417889 C-67.41169608 213.20773789 -67.48551147 228.29132649 -67.5625 243.375 C-87.6925 243.375 -107.8225 243.375 -128.5625 243.375 C-128.5625 165.165 -128.5625 86.955 -128.5625 6.375 C-108.4325 6.375 -88.3025 6.375 -67.5625 6.375 C-67.2325 17.595 -66.9025 28.815 -66.5625 40.375 C-61.67996025 32.10164528 -61.67996025 32.10164528 -56.84204102 23.80224609 C-51.21835445 14.47061051 -45.56233982 9.52289214 -35.375 5.6875 C-34.41207031 5.31238281 -33.44914062 4.93726563 -32.45703125 4.55078125 C-21.72680296 1.07695539 -11.23387847 -0.10796039 0 0 Z " fill="#232323" transform="translate(370.5625,921.625)"/>
<path d="M0 0 C1.17820312 0.57363281 2.35640625 1.14726563 3.5703125 1.73828125 C27.3457031 14.15786448 43.23571584 37.44530632 51.8125 62.3125 C52.09061523 63.10479004 52.36873047 63.89708008 52.65527344 64.71337891 C59.61984219 86.10334249 58 106.40694001 58 129 C2.23 129 -53.54 129 -111 129 C-105.38157516 161.14102601 -105.38157516 161.14102601 -85.51953125 185.83984375 C-72.74159001 193.94244525 -57.65249972 196.18049336 -42.875 192.875 C-31.06362217 189.50482019 -20.54620013 183.82288976 -13.75 173.375 C-10.26340741 166.94366128 -10.26340741 166.94366128 -7 155 C13.13 155 33.26 155 54 155 C54 161.76643991 54 161.76643991 52.53125 165.72265625 C52.0518396 167.01550537 52.0518396 167.01550537 51.56274414 168.33447266 C51.21203857 169.23472168 50.86133301 170.1349707 50.5 171.0625 C50.1383374 171.99626465 49.7766748 172.9300293 49.40405273 173.89208984 C39.45678581 198.81306498 21.03266013 216.19657662 -2.87890625 227.66015625 C-17.93372713 234.12298925 -33.41654094 237.4516605 -49.75830078 237.93261719 C-51.25181538 237.97751046 -52.74505306 238.03283891 -54.23779297 238.09863281 C-84.72139684 239.40366061 -114.24164484 230.77629001 -137 210 C-137.83917969 209.25363281 -138.67835937 208.50726562 -139.54296875 207.73828125 C-159.83071586 188.708689 -170.72373166 159.33647913 -172.10681152 131.87957764 C-172.24424581 127.30855388 -172.24250558 122.73981878 -172.20581055 118.16723633 C-172.18743966 115.80474079 -172.18530263 113.44263813 -172.18554688 111.08007812 C-172.16097703 99.77913524 -171.85669338 88.84451166 -168.875 77.875 C-168.65690674 77.06659668 -168.43881348 76.25819336 -168.21411133 75.42529297 C-159.62066059 44.7971234 -140.57354342 19.06715491 -113 3 C-79.52643835 -15.64238853 -34.27942093 -17.61555934 0 0 Z " fill="#222222" transform="translate(1633,933)"/>
<path d="M0 0 C22.11178484 17.8083262 35.10493545 43.36793932 40.70092773 70.875 C42.2933327 86.79904966 41.70092773 102.87152815 41.70092773 118.875 C-13.73907227 118.875 -69.17907227 118.875 -126.29907227 118.875 C-121.85877936 149.36196286 -121.85877936 149.36196286 -104.29907227 173.875 C-91.25167211 183.3505587 -76.70568994 185.74906754 -60.96313477 183.37109375 C-49.48510656 180.78927507 -37.88259333 175.36718108 -31.21459961 165.22558594 C-27.38913601 158.66401715 -25.15457176 152.29699799 -23.29907227 144.875 C-2.83907227 144.875 17.62092773 144.875 38.70092773 144.875 C37.38622929 150.79114302 36.08754843 156.15944361 33.95092773 161.75 C33.68707275 162.44125977 33.42321777 163.13251953 33.15136719 163.84472656 C22.23772452 191.74992167 1.44657476 208.28078825 -25.09204102 220.12109375 C-55.5480554 232.25628088 -93.27645785 231.48126191 -123.29907227 218.875 C-142.17268248 210.73701368 -157.86251195 197.91944897 -169.29907227 180.875 C-169.92555664 179.94171875 -170.55204102 179.0084375 -171.19750977 178.046875 C-175.64167896 170.94396703 -178.42254724 163.56927511 -181.03735352 155.66015625 C-182.18387702 152.05379633 -182.18387702 152.05379633 -183.36938477 149.3515625 C-184.61333528 146.03784558 -185.23625612 142.65817005 -185.86157227 139.1875 C-185.98725586 138.53072266 -186.11293945 137.87394531 -186.24243164 137.19726562 C-191.94072401 106.31908446 -189.67201556 71.78261664 -176.04907227 43.3125 C-175.65776123 42.49386475 -175.2664502 41.67522949 -174.86328125 40.83178711 C-171.65220042 34.28445102 -167.93681578 28.5145652 -163.29907227 22.875 C-162.4934082 21.85792969 -161.68774414 20.84085938 -160.85766602 19.79296875 C-156.12870175 13.88993559 -151.270164 8.53156035 -145.29907227 3.875 C-144.52563477 3.25367188 -143.75219727 2.63234375 -142.95532227 1.9921875 C-131.43215014 -6.85844169 -118.45383564 -13.73227522 -104.29907227 -17.125 C-103.63762207 -17.30401855 -102.97617187 -17.48303711 -102.29467773 -17.66748047 C-67.97426396 -26.87918836 -28.32765424 -22.20934362 0 0 Z " fill="#222222" transform="translate(1041.299072265625,943.125)"/>
<path d="M0 0 C0.677211 0.00398804 1.354422 0.00797607 2.05215454 0.01208496 C12.20264918 0.08211417 21.82170978 0.60115488 31.625 3.375 C32.70136719 3.67664063 33.77773438 3.97828125 34.88671875 4.2890625 C46.00703646 7.72143158 54.87118367 12.71726219 63.625 20.375 C64.56666016 21.17357422 64.56666016 21.17357422 65.52734375 21.98828125 C80.41938019 35.59710367 85.49494641 56.01665738 86.625 75.375 C86.7581146 80.97029515 86.75202593 86.56261306 86.73852539 92.15917969 C86.73824273 93.81610106 86.73840279 95.47302255 86.7389679 97.12994385 C86.73925279 101.59191203 86.73340612 106.0538529 86.72639394 110.51581478 C86.72010886 115.1922841 86.71955254 119.86875416 86.71836853 124.54522705 C86.71527034 133.38465884 86.70707746 142.22407815 86.69701904 151.06350446 C86.68581078 161.13372244 86.68033561 171.20394105 86.67532361 181.27416372 C86.66489347 201.97445098 86.64656694 222.67472114 86.625 243.375 C66.495 243.375 46.365 243.375 25.625 243.375 C25.60312622 236.47327881 25.60312622 236.47327881 25.58081055 229.43212891 C25.53033416 214.18106856 25.46386345 198.93010833 25.38928509 183.67914772 C25.34448196 174.43812838 25.30503241 165.19714624 25.27856445 155.95605469 C25.25545811 147.89353205 25.22192141 139.83112872 25.17629844 131.76870096 C25.15253505 127.50695287 25.13369652 123.24532169 25.12738609 118.98350906 C26.59835985 85.45140057 26.59835985 85.45140057 13.515625 56.0078125 C2.45095922 45.59176506 -10.29768569 43.7582754 -25.21484375 44.06640625 C-36.60368717 45.178543 -46.14249328 50.71596367 -54 58.875 C-74.35296848 83.88419005 -73.81498781 118.35383266 -73.88671875 148.84375 C-73.90202171 151.58957955 -73.9216299 154.33537413 -73.94111633 157.08117676 C-73.98424948 163.49772575 -74.01311871 169.91425047 -74.03643972 176.33089876 C-74.06648064 184.37692819 -74.11631718 192.42282212 -74.16601562 200.46875 C-74.25427239 214.770791 -74.31335243 229.07276476 -74.375 243.375 C-94.505 243.375 -114.635 243.375 -135.375 243.375 C-135.375 165.165 -135.375 86.955 -135.375 6.375 C-115.245 6.375 -95.115 6.375 -74.375 6.375 C-74.045 18.585 -73.715 30.795 -73.375 43.375 C-71.1165625 39.7553125 -71.1165625 39.7553125 -68.8125 36.0625 C-67.87903923 34.58715544 -66.94547053 33.11187915 -66.01171875 31.63671875 C-64.46040522 29.1667564 -63.02370776 26.71920162 -61.64453125 24.14453125 C-55.11087989 12.23615383 -41.77941932 7.3706543 -29.375 3.375 C-19.53477226 0.70451592 -10.16985462 -0.10858619 0 0 Z " fill="#222222" transform="translate(756.375,921.625)"/>
<path d="M0 0 C14.22237841 10.61410834 20.39107782 26.31463599 23.125 43.3125 C23.125 45.6225 23.125 47.9325 23.125 50.3125 C-10.865 50.3125 -44.855 50.3125 -79.875 50.3125 C-79.875 41.29321496 -79.875 41.29321496 -78.9921875 38.19921875 C-78.79786133 37.5141626 -78.60353516 36.82910645 -78.40332031 36.12329102 C-78.18772461 35.42260498 -77.97212891 34.72191895 -77.75 34 C-77.5240918 33.2587085 -77.29818359 32.51741699 -77.06542969 31.75366211 C-72.41438042 17.12130842 -63.53113869 4.80875962 -49.875 -2.6875 C-46.58901186 -3.98560902 -43.32376871 -4.93398751 -39.875 -5.6875 C-39.10671875 -5.86925781 -38.3384375 -6.05101562 -37.546875 -6.23828125 C-24.78642033 -8.38367933 -11.14325852 -6.83834155 0 0 Z " fill="#FDFDFD" transform="translate(996.875,971.6875)"/>
<path d="M0 0 C11.17082966 8.87095297 16.94452717 21.17168759 20.4375 34.6875 C20.69515137 35.67979614 20.69515137 35.67979614 20.95800781 36.69213867 C22.04278766 41.21073363 22.125 44.62617622 22.125 49.4375 C-11.865 49.4375 -45.855 49.4375 -80.875 49.4375 C-80.875 42.92750131 -80.76749392 38.57333502 -78.8125 32.6875 C-78.48076782 31.66378296 -78.48076782 31.66378296 -78.14233398 30.61938477 C-72.75256946 14.73813616 -64.37976694 3.39532574 -49.375 -4.375 C-33.19231342 -9.86555438 -14.54684186 -9.7445832 0 0 Z " fill="#FDFDFD" transform="translate(1605.875,972.5625)"/>
<path d="M0 0 C6.87988371 4.46530914 12.9627041 11.26348842 15.203125 19.33203125 C17.01211124 31.84418608 17.41804235 44.72680091 9.625 55.25 C5.04249384 61.23736207 -0.52202593 64.31137125 -7.375 67.25 C-8.32375 67.683125 -9.2725 68.11625 -10.25 68.5625 C-20.38815132 70.79289329 -31.47467718 69.66922141 -40.5625 64.625 C-48.7976592 59.32911932 -54.77796812 51.71901334 -57.375 42.25 C-58.40198872 32.20312881 -58.8373487 21.07118423 -53.375 12.25 C-52.72144531 11.18265625 -52.72144531 11.18265625 -52.0546875 10.09375 C-40.16157338 -7.32348816 -17.73543285 -9.97451411 0 0 Z " fill="#232323" transform="translate(1752.375,1101.75)"/>
</svg>
